<mxfile host="65bd71144e">
    <diagram id="kQYxfyFseVmcCptCt79h" name="Page-1">
        <mxGraphModel dx="422" dy="418" grid="1" gridSize="10" guides="1" tooltips="1" connect="1" arrows="1" fold="1" page="1" pageScale="1" pageWidth="1169" pageHeight="827" math="0" shadow="0">
            <root>
                <mxCell id="0"/>
                <mxCell id="1" parent="0"/>
                <mxCell id="102" style="html=1;exitX=1;exitY=0.5;exitDx=0;exitDy=0;exitPerimeter=0;entryX=0;entryY=0.5;entryDx=0;entryDy=0;" parent="1" source="2" target="188" edge="1">
                    <mxGeometry relative="1" as="geometry">
                        <mxPoint x="70" y="350" as="sourcePoint"/>
                        <mxPoint x="210" y="240" as="targetPoint"/>
                    </mxGeometry>
                </mxCell>
                <mxCell id="128" value="uses" style="edgeLabel;html=1;align=center;verticalAlign=middle;resizable=0;points=[];" parent="102" vertex="1" connectable="0">
                    <mxGeometry x="0.1486" y="-1" relative="1" as="geometry">
                        <mxPoint x="-3" y="-1" as="offset"/>
                    </mxGeometry>
                </mxCell>
                <mxCell id="142" value="" style="group" parent="1" vertex="1" connectable="0">
                    <mxGeometry x="40" y="360" width="180" height="230" as="geometry"/>
                </mxCell>
                <mxCell id="143" value="Legend:" style="rounded=0;whiteSpace=wrap;html=1;align=left;labelPosition=center;verticalLabelPosition=middle;verticalAlign=top;container=0;" parent="142" vertex="1">
                    <mxGeometry width="180" height="230" as="geometry"/>
                </mxCell>
                <mxCell id="144" style="edgeStyle=none;html=1;exitX=1;exitY=0.5;exitDx=0;exitDy=0;" parent="142" edge="1">
                    <mxGeometry relative="1" as="geometry">
                        <mxPoint x="10.850000000000023" y="200.00499999999994" as="sourcePoint"/>
                        <mxPoint x="90.85000000000002" y="200.29000000000002" as="targetPoint"/>
                    </mxGeometry>
                </mxCell>
                <mxCell id="145" value="interaction" style="edgeLabel;html=1;align=center;verticalAlign=middle;resizable=0;points=[];container=0;" parent="144" vertex="1" connectable="0">
                    <mxGeometry x="0.5937" y="-2" relative="1" as="geometry">
                        <mxPoint x="46" y="-2" as="offset"/>
                    </mxGeometry>
                </mxCell>
                <mxCell id="146" value="&amp;lt;action&amp;gt;" style="edgeLabel;html=1;align=center;verticalAlign=middle;resizable=0;points=[];container=0;" parent="144" vertex="1" connectable="0">
                    <mxGeometry x="0.0721" relative="1" as="geometry">
                        <mxPoint as="offset"/>
                    </mxGeometry>
                </mxCell>
                <mxCell id="147" value="tool" style="shape=image;verticalLabelPosition=middle;labelBackgroundColor=default;verticalAlign=middle;aspect=fixed;imageAspect=0;image=data:image/png,iVBORw0KGgoAAAANSUhEUgAAAS0AAACnCAMAAABzYfrWAAAAkFBMVEX////m5ubl5eUAAADk5OTj4+P09PTx8fH4+Pjv7+/7+/v29vbq6urp6enY2NihoaHS0tK8vLyRkZHJycmzs7OamppeXl7a2trMzMyIiIiCgoKsrKx3d3c2NjaysrKWlpYhISFsbGxWVlZhYWFNTU01NTU9PT1GRkZoaGgpKSl7e3sLCwsUFBQkJCQQEBAuLi52B3gxAAAdR0lEQVR4nO1deWPjKM/HTgLGR9I0TdM0nd7TTrszO9//270GHYANztH02ufNHztsakXiZyGEkEAI8xlnWVabRpFnWa5NS5qWNC1tWoVpNe1jYybITKMcE0FlHlOmpZigZgLzfB7hpZhXRbzGZZ9XY3nlAS+Z4pX7wnV5qQivrM8rDoT4f7T+x9AafzxaOTw0jqOFPch3Rgt7kEfRymvmtRda4yhatRbywufFaHm8ImjVcbSGgBDcF/hV04KHTAseMi1+fRkTQA+YoDItECgkYIEyJnC8FPOqmBej1eFVhLyscFKrzd3LaPR7onfjpbbyGgBCjNsPYDZpW/Bk25rAT5sW9Lv94wTeHLcMQUMEY/hpQwCymMdA+IAAusEElSGQKV5GuPGAcLk6uRzB51H0eTUpXlY4MC4BwVYg3ItgtY1aoEBtYxbIqS2PqXzPMeXzgjczZO1UrlZ3I/rcihSviLVzprjO4sYlNn6/Glpg7aSSUgnilUV4wfiVpyP3ufootPLuQ+Msbq8BLd/UewSM1rhrrwOC7tww9tBqdKv8m9n67v758Wo5mze6qpvk3KAePbBGcxEK19Ror2O8dGQeGu8CRG0+ZfspTEObVmVayrSUaVWmpU2rMC0mKJs+gTQtyaRM0DBBh5cjkEot1j9Hwef2+WZaCEPQ4yWm/9JD9r864CXk8maiHK+kcJqF2wUIC2vMJMrQJIKWJOw1jF/Tghcx3tleA0HLq1EXl79Hsc+P5UplvbmhviCszpbmn7tAuFwbKE9ivKxwFQsXmYcGgBA8Zj/TO22K+Y8oVPC5m9rueRaoOcE/zZS4hYHoe6f1xv5xVb+Xd/qZaIlBrCxedYhWBl//HhfZyraqAC11D3/P3wetPCcXtm3BQ21rjA+1LbTXbcsSTNoWotW2YCQaAhSobaENJYKcW0xgeVmCSw+Xp6vlfHFxcjI/W975eM2RlxVOgIG/b3k1S2w5XuNM04/JHi9lxKxYOJy48nwSAlFGgRCF+WjzMY3KNJRpSdOSpqVMqwoeSxKokED1CSKkNUNyuihEZe1wqZSshDz7RX/6KRyBANfhsRVeiSfT3AifgzrjHyxApCoUbu9+IYF56WSv2xaaRNaSFley1wR/zi/CPNYwgXsR6Mu3j+Hc4BM4Xjir59kEenY+L+uyw0sVV9jvF83CIcGtyloVVmChMrLXltRpZRbyIi3hfgXC5TmLmQDiC3inyiDysKqanrWrNtztmWaPUYLCrRrDwarRjyJci3sG7z/ly5fKPLaYjWNzw+qFOv13rphXM7VfbSwM4ty0l3WA1sKSANITcUy08r69Lsa+AnbtdRaYekfQHYnB3OCUHRcyYEPn7YpF4+gIeRmCG7ZZc/sjyMuq4uiv5ZVL+8A0C+y1nTVehcX6SozjIxF4NYGB3wqEMp+q/ciwJU1LpVoRgmHSyrXE9eWiMC1hR9GsihKInLyKf+etV+1xKOy3i8LwklaNXkRIig/M7b9H6Rc+JvilowsbaIkziSktcXNDFdPIYG4AjdTPZuiYFgyVy/jcwBbrVNU+Lw0Y32oQzurfOuRlERy1Deu3nkW0pGKCjgexBQjBY/ajvNNn25cWrmtAYx6Nnb4iVveTXjTBTninGoRbWxMW8lrDCBTgaPzifn1DX/6J5jj0iV5FBC1Nq+uN6MdewFI1HlrzkNc/9J31NP49OlqsgB177UzisUYigUWfV+bFI3EsaBH4N+vz0tbB+pfmBovWqeVFwo0trREYLFwhDhmJUSDAykvzCVsybKUeS5LG/ijLPlj9xwR54qei6v8VbPe9gO+qa/g/77HCmrJz8xUskObVTsLtAsQ+HgTAH3oQMY10WtLRSI1gvTqw3KzOvNb4xwVoJPvXIFxp0bpBAlxTrzwPorLfXBuuyroSZ81+HkTHMwqA+EjvFH2CKa7zRs+xuDwusf8akrwfaS5njJb1Tq1T9Sg5TlsB2MbGZdo+O6u/pS+Ppnvl9Oe0jxauC88thwhaQLokghI8jSuJe13FEpXWEGj7x1P9Hr68W0wGCni0VfVfB1YpGa5gJOblOXy/hrjX2B/1IBx4WEvB9hpWR88X8NjDCC27FcmitayPs6o2IzEMTwxHbCIBmGTEphsUKQksaR9z2uXzEgjWUiSjKLDQvpHEQU3RzL1crtc0iVxXlgBG7abcKlzAawAIwe/wiNHAyOpS8TAkAobL00iMtFyLrrfiInTKBuQv3epSz0fdz2WBWmJ/b94bLodHA3nMvq936mwW8zpluMjaoc066fNy3img9bNy1k514VqbXlhSu264EN/Nl/cMvLPXDBeihbPhQgyhhb782JsbdO6H9V9W5uescOBMlMdGi+21t5hsW5PuqjoRBcUdsuTcUCJYEyKFN1MxXPYxWjfWfhS0x0sD8hdZsORfoMEbPc7tDhlkNNg1wQ/LKxSu68uPexNXHIg37L7GCKIbnBJf/UQFpKp02lWWGDloNWsLL2V925nweOlaVXo1PztbNYXCrWEjuH3yVSaE26dftPt6yM4+7630d/bH/Z19RWBFdvY92wWtGfGyHNqpJO/u7DdWB69QOOfbwfjNvTFV2+X1ov3O7eyP2bj0dvbzHYB4d++0ZLBikeYbgguesnGvSJafxytb4PiKWSDf2oEnP/pWcfmyY+A7aJF2gadkY1EdtLq8YGn4dztaNb6HY6L1ztluRWDgI9luiqPv7XRW7ZA9MW4IrclgRgPYt5E8arabFT5rmgbfXNvC7MamwQTC9itMjDQtkKptNUyKu+1EqsxjABmF9SY6IAh4ObiaLi9BvByBFlZnfhYgnEoKB7PGWqWFY4KGeJVdXgEQqhGkhe+SpatYs4Lx27GhSwRrns768sev9Que5Lib05z747fGTAmdRez1G7N038k7pbXhZEvWyJJnxl0ywK3rfqUG8+WbBrK6rut0TvMX8+ULB9aWHBscjOud0LKLv1k9gFauIUhoAjnvkGMTJHlNuklek52z3UKTeO4Z+HF8bkACMvXrchLPQMs84eyTJ5knXMde5wXGqp/11olrKNutD8Q77lVjWtCyGPf3Pnr7xzgYl8TLxdI6kWZhvajfJFwnqt0Kl2mJoYxbHef1hr3qg/wtp7YD/hZ656NZ++X2nGaEi3kBWv25QZCJi/tbjcwoG+xlUid4fUXvtKa9m5naAS1MS5Jii3d6ir5GHK3q7J7ckWf5VfLlBzPAqQd5cc9wbUULI6AP23QLknOvWLgArRVvJhlHayA3P5EBvg9aOb0+D63Mfwd5R7dyX7eybn1T+7frEcPFBPy+M38mRbCeBPMSxCsQDue6uoOW/d3ps8Pq9kT2eXmzW9gvFq4DhOuX4yW2TQW7Z4B3ph0X1NyooTmxvCCwhquDKJP5rAwnbMNrcu+wGm1kzaRHnRNZC9/BO106+WdqwN9CEB63eKe8478QLBzx8labz9d1/R2rOW1g4ZFmxiRanPu+Ba0pA2IyBb3qIDHmjIHb07EroPtC1ZzRip1gnQgo6DXBFZsblAPLwDW0TnRgGbhyRit32xiPdleRLVC0OiinGGKqdGlonQgFOHbpbetpzFrdhmVNC8KypmWCsXaZb4tiREigTatiUktQ4XbrfUV7YbOKeWnHywOrfaTs80LhCKx/EC7JwhUzGoKLlqkvXJkUznDQIS+xAxCp+Fa6Ymc4vqVljfEtdY42plFOu3rxLQrHv/BgjMe3qK7nWaA1n3N8i6yjyfU6fjVnCMRxvVP1+vNGW4IMTMm9sUC0j79sf7njA50QCKcOrph3ymCVFcFVggVCwkf7c9+qmrP608r9Y9FMppTfX9seeHCFaDFYvHc9i8blp/xckTNcdppFsK7Ao3tvtBKranooWFXzNnisYqcVqLoddT5m29ksXB1cjpcOwPLgCquDcgfWI/BycPHvnlYx4Tp79N6qOlKJlFhVh0C4jIla6xryJLilTAsSK0yLEytqJoB0DktQ9sFaCCIlLJal48VgleZLxXCVtcehbTFY5jnDizJx5rS93ZKgcHVCOO6XTPWrDoDokCKBhTW6RRvLAB/aqy6aLlgvE+XymCpn6im3iG2RxP1jNxj9/eOGndechCNTf+cRuJwpI/lwxc5ee9XvkwHeLV3dBDnNDJcx9ZaXG4a8uqRHAl4MlserOvcY2aDY9zqZpcAyZ/IUF2EPsgCuOgDLW4s7uJiXs1m+vS4cXDPVj8u/K1pBvu1w/lYkCmo6XyFYNaFgUyFDe13g/LU0a17fwLuIq4OLeHkGPrDX1S8GaxKx1zm3YlHQZP7WpD83BPlbtgBHc2VL0NJcAOO1QgJoFRW62HlZkTm6Fz6BbdF0vyzdQwXW0yAHfqSwpCWCdV8WHeFKctBKvUW4Tr8ivYmQxoHYnncaqxPomsQGbVZtSDUhoboaOaZQwYwq7hf2Rzjv1GjJqT+SGdS8K5znzXrz0GDFzv55p++SAS4JLBjkJQ1G1YkmrE6DAy8sKLobe0EcbJEGg9WLXPhg7X8O1Wf68orBInt9wr30eqCuRpFPC1d3Z9AiYXJPvZ8J0eJhqA47tev9MsC7tRiudo6U/QeDxfbahwtHYi+Z9h+Cq1vNaYIKdyFY4W6cJKdUdbPNByt2hnfIXKnpABDyrZ8KO6UL70sajPclfuHqDenziMcUjBZl5xfbVYEu3U8UnT9L8uA3bxd+z48IX8QBNWQZTlsb46Tzi6ipr7jdw2A93/9GsEqJHvlFGdlH1QvSrLyrJWsCK6H9Y99eD3gQu2nkkX15RUZE5t4gJ0fp3v4a7hbeXpdCKRO9O/ejCdbUdywQg9WzQP766BuesshmpBr7JnHK/aWyxDsgVdPNAnh5cHV64GbDDlolgaWHcmze25ffe1XtzQ0FwSUDk+jgAkW5IlLY3jMrXclwTQJ77YEV8qpeCayu5xSsqrd4TkMjcXBVbetZwI+lluQWFMVwqwpbjqAkuIRHoCqe1CwmP4Tq86JowkJ4vAoCy9bi+ARUb70RKOYOwoUtRyATBANAvCXHxiNw2pV750GQqX+2zsJJZ3UJszqb+oJ5KbZZWXfFx7NhoCVuJTu44vusHJtepDmvPLicVfB3tf4m8iAK39RbXm4YBntdLS8Cq2ThPtg7PVJc3oPLy/gvPbheU1kjDFcNvDybFaJFCrxRSXv9Ab78nmck9QONloAnKxXY6xWhtY6fkTRpBwfCNckMLwTLRnzG/rpBXhFYk8OioNUkH15Vb4m4YjUnVrbYSLSpbIEgtimKgZi0qXExxZFQFGNaTIAVO4agcHF1j0DS7upVUZcJXphzeS0KVaHNOi808qKyG2fgdxEuyUsRKVYiMWmKwOclBL3Dvao5xxF7PebQu/LnhpoGYx2J0NHJpRau1gljsDq8mtDAe5X+Q7s3MV6WIBINTO4UvVs1p9upCKwC+V0ywguzvkyqqHHH3DDsWiACq0Be/4ET06Xb2PF7gLbrJI1W699PHFgPPV6SDXzHXn+KL3+s805LDr372RM4vKZM2skyMLxMlxcOrCCjIafQ2Ea/PaNhuDpoy3mnyWwZk63SSUgpBxNSDIHkweiyZSqMbN0leUnLi5zSh6r2U3mM8Gjgr8WAcIPZMpaXdLyG0oa6mTkerwOqOX217Wfp0lHTZtsQCBCs+37FjvDPTsbDxVrN6mXpXhJYfeG6Yyr3hds3S/cTqjm9DBGb1jtnwz2YAe4Nw64FItehYl6f5p0eHa3MaZch8MAaRMuzWSFakoahlvPT+SejdaxqTi8BmPcEZRmAlcyElqGBD7LdqAxlo21K5lqEwu1jr725IVIdtHM151s8CPP6u1m6vIfvwHIamUdmdTov5MHcZBGeFYSzoTn9z0YyLkMtCT2Iwcz3nkYyrwP8rV2ydLf5WyQQ7eG7A4+C8dvVcwdqj9eVZ+AheeAyhVYe9bcOrU+MZ+m+VbeiaHGGCA/DlLWzBLzc6aFFYCkP08vP9k63PLS3brXyuDsrHkiglG55NivkVTFYUF0wI7g+WbfetqoGe+0CjfaxUx+soRPTEaxfXV50HnMLFnpOkuHKt62q986x2W1V/Q5zIrw51K6HLeulGsfXr7KXbe4ZeBKO4RK7zIl+xaw4ypx4fH+LqzlPQWMGT7UmY/Srb4F8A8+8PLjMdU7f3zvlHqjF6TzRA0YLh+Fd3xcgzVIhL4RrXc6vp+pLoPWWdaKHFobk0ic7sGbd9XgpBqtbKUx1KkYhVXbUdWIPrR4QtMz3Tw1p/IM5mh0P5oDYCyzziQAEalKnhvhgYVwACciDP1M94aSXf/IEdR878fKFS59QshUIcbz4Fm0vxO/zcaTQDTLwd2XeOf2GhuG8z0sLP13nWeaH2OtveJ+P06zeqdZuNpwvM92zQF5J8JP6HO/0w9Fyw7BzDhWDpW2w5kzlIVoP8Od/CK4PR+soez55vDoIetDzGD2bJXkfpuWVKbJZGo/QOlOBx4hgLXBz5IfKI97pO+357HgC4PZD9uRepw06sLq8CkRj3n6Lx5WcFZpJ6c8LWSBcP2WxVbgjHYV4vL1qfhFhblG8OqjmFbLbGURed56BxxPHWgPGwiFYJ+0faafS3Aj1QXvV7+idpm+o4SPkH21Ay18f+8sdkRfsSeTA65zBaglq1q7/gC+fRsvlNz/JAK0yR82CZVGeF78cXHUAliFguNSHZ4C/JX8rMIlb7/Pxk8FbuLwM8HKFYHG2OWnXdatKBNaiIIJ6RdqV75W/xfPQYFilD8T+p3n3CfY7OZwX0gSXcgTS+lLzwuPFR12XVDd2UjheBcNVBMJtO807EC7Vrx4Qgl7EW/JOu/Gt2NzA71Cjzbqj6oEnIMW5QW7Wdpw7e12R7UJ4p4GWkHb9aP2ugbzT8KT4g/NOecx+lHeKq+KrduVDcEmIvSzmhbFF4Oh7vIqg5GUqwkhzQ9qlm/+eL78ksFqrwHCZs5jsiDO/27fXlQfXCfOiuYG1S39GNed+tRixSHMwNwQjkXzLK+DFcOlG2b9c1tF8WwfXRcW8eG7w4IIu+yPxDdWckZEIlTX73sxz0C1AFU+GryV+R/74UwUwvhZxUjL1J2VMuIJtV3WwcDtdUXRYNWdYQ5a8z6dz19uKqhPX7pY+qn3Cor1VqJFOS+5pGMa0RLNXX2cDWnKEGrKP8U5bDnz8yGjjW7vaP/UHLjSPnQFuD+W9FikLxG6q/v6+fFOtZn8JkZdpODdoB9dcp2IvGNKaJu012a6/uvkK1ZzBSNzrPh+tz7xT6l6ZF40O1q7Wg49U7EBf0O+Yxkdi22oYLmfg966r3joSuWj9gFs2dyGQYu6dQfJ00r8MtOQ7HgZ4lRgvnRYpXmTqX95+e2iSQIQv4tgexFhPXxxWPy9EZFYvfyNYIr26bPguwWmoJR4vNxizA/aqP6qac8g7ld7ph3eLCC8+q8DmwQ/uDD65aTOeB0Fw/VHf05cnZ7QdghulmyhacCXkndy+j/qD4Urk2BBct+rLVXPucJ8PGZvRVVM1+Zi9tGClC/a76VXf93m5GwVj9rqdG8ZNxnBFeZFwB5+RtE/EJhIUGbiUXhc4dh5XRZoAHroRw9feQwCGBuNJkQrASCrgrrYJt41XPGIzHA0Md2+2ne0WehB06tOsyoZ2iuwzasedIoKLtKRXzUmD8cWY+mNEA/OP8eWplP/CfJfMGoGD85+FiEYunHdKvDy44jnNDFfdfCNfXmHNTjOcY1O6yyMTaHV4ObgSGeD1hOF6nwxwNInHOO+UswzgInLjHqWyJ2CjwgZE5wle7rxTFs7BZQkiGQ24Z9vCVYe8jnDeKRxXS5uORRPffW14l7JhgpoJYL+y8Tc4FUx1G+mR1iEvS1BaH+NC8/1r23ixqb8oWTjeTAUCTdol67hwHsEwr97uK2nhkc9ptndwjx74koc8z3pZuqYFHtmqX7EzkPX17Jv6PJKJ1RBcTXPoOc1lFAhG67jeaQ2qNYnE5UNegNai2SvLz4Mrbu08U/8N7vPJS7s6XMvtaFm7dVbvlxOJcF0k5wbP1H/dak5KKMNzk6Rvr2lTP8xAg6qNm7qT7ZbMTsa5geFKZSfXaOr/QJbfsbLdMn5zpgVaYlrw06ZV0ZvL+EVkrC+YrEgEEgnszs699Atw5Opsc3ZRFyEv8LceiVeR4FV2eSFcsFDXTMAH8Yt6Avldf1RDvKxwUvR5cW+2AnGQv7U1S9eG/84a6kFTzf2LWf3xa4fMrYjb68DfCu21b+qjY4rgum3d1EOzdD/IOx3BTIezm5riXXcg/tRHS9voVr2zd8o98OBK3DZJcOnma/vyYGNL7IH0krbt51o4tODQ/vn+aHlwJeYGciR+19kxffmj381pjfyjBBtadcGyxyOSfw2+xibOK+LLO+EcXCl7TbmF/2pLcKS7Od94x92kOydmdpd1Df2mI7xHf9frNd2NsnCynMGkiHPiZMucGFTsBKY+FA79FhyM/5o7Jr7qfT7NGaFlZhe07qvCcKBLigrWc/vslTqoBuXRM/XRnGayXU/V1/VOm41DS0PgZl3SzdNQ53nDaFk9vDsMLYLrIoVWa7ugYvZKfu59PkNo8UjMM2VjEXcFrxPlgxWffQHQQ91bJwaOSrJix8EVqeY0pKRdJ00XrYPvfQ19v44rp/d25Rob2zo3BJi8XLj7m7IG+4d+pr3abaazKuTVBLw6wlUsnIMr9GmdcApi9Y9V1+GO+bRbgHifOdEuav8pjA2Fu+41E2T41RKiT5W+O3RORAKEC1IoYvYaX9jqGHPiO3qnE/Pm7EBcuHBx2wOrTb80+lt2mpzuGmmOrI8RrilpSS9OWz2Cpfyq3insZc3blQ+ETnTQA+tS3CFaNU2RB6OFcD2n0MrBjP49Elp7nvrjm/rYOtHY61MApMSGu5vT8Fp4aJUb6ml0nZjTTJoSzlogC9efvnA0N4AT450wdPCpP4cXxZTpohhMV64LVDLtCOoS9ltflSUFD3MpDi3AsQQWrrXoCUekYBiyKlW61CNIAWFhPd5pZRTyr6x8GzmlcebZa2VV4cza0OwELdx+8a2qK9zsfFMN2GvrEi8wzeTrVXPW4JPKJboS/jk24EFoywsM8H3V9xh3rEEJrJ2G3SbfO4V+PXtofTlf3ohhIVnbAMN1gBYsi54sL5zc581R0NKz0dMqiha4EJ9WzTmcv2V+wzvIxnzpcnsh1XtpbShMiI9l3t+jDw9QTu7Re/kA8BoWon/WCGiz2iF/K8IrqObcKf8jnWKRzDVRDNazCEnhRZctKSbNnFQH8eoSYP3UopcIA2Xr9+X20qVtvKJ5p8PVnLvlnVZcWb+sfYLa+g9/lCGA7t3JJK+xr8zpih3MY8IConkoXDmBF3d9wH0+H1fNyTehrwKroOyRiZcaS1XMjvIOZ0MNeqdsgfiseuFbILxIVX9dX94IBNEHqHny0LJx+EWjx5Tq1xwNLR8uRgsWWuGpXZ9RzRnm2/bytzIIi99of+g2kMCsJNUKz+t+vm1QHbRDxY6bG3BnaePZa8x8LbfVYiTyt0IgINNZSsp5ppY0LZVqRQj6pLD7VXOhjPkODgq/uqBNoHmZ4iU9XnIrL2wRXD8uVDuNtN1bYDT6uhzql9yxX4Lf3C55p5EM8EQ1J765m+UkYy2xGmlrMjiDfl50NTJ+x47j1fUguvUPtG/5+9fybPZAjG5kJAM8wevzqjnrupMHMR55n5+rWjGvI/jyluBu1P9ciSFr9/m+fKqa88bvg2zy46PVv8PLHOB/TLS21mIcOBL7dXqu4udhpYjgOCORCaa/Aqx+TRK1GIMjMV6LwWbu6KWPsVbxSnq1KKrDOQzzqsT0kkrW/rxOS7mjcNuB2MeDAPhDD2KwmrNfsZNNWrv78mvTqKa34juGB+G0ZDW/nm3mRtBxXyMHPYhkddCHVXO63AS5MiS7WaC9vVOPV9bUNURnI7y+oC8fRSt9YvreWSOfcQb41mrOA1fV26uDIiPxbatqse2MpLevqt8rYhM9lCWoonkrrzcIdyiv/wP08hWRfqFw5gAAAABJRU5ErkJggg==;align=left;labelPosition=right;container=0;" parent="142" vertex="1">
                    <mxGeometry x="17.960000000000036" y="90" width="54.07" height="30" as="geometry"/>
                </mxCell>
                <mxCell id="148" value="Actor" style="shape=umlActor;verticalLabelPosition=middle;verticalAlign=middle;html=1;outlineConnect=0;points=[[0,0.33,0,0,0],[0,1,0,0,0],[0.27,0.1,0,0,0],[0.5,0,0,0,0],[0.5,0.5,0,0,0],[0.77,0.1,0,0,0],[1,0.33,0,0,0],[1,0.5,0,0,0],[1,1,0,0,0]];aspect=fixed;labelPosition=right;align=left;container=0;" parent="142" vertex="1">
                    <mxGeometry x="34.75" y="30" width="20.5" height="41" as="geometry"/>
                </mxCell>
                <mxCell id="149" value="document" style="shape=note;whiteSpace=wrap;html=1;backgroundOutline=1;darkOpacity=0.05;size=13;labelPosition=right;verticalLabelPosition=middle;align=left;verticalAlign=middle;aspect=fixed;" parent="142" vertex="1">
                    <mxGeometry x="29" y="140" width="32" height="40" as="geometry"/>
                </mxCell>
                <mxCell id="153" style="edgeStyle=none;html=1;entryX=0;entryY=1;entryDx=0;entryDy=0;exitX=1;exitY=0;exitDx=0;exitDy=0;" edge="1" parent="1" source="188" target="158">
                    <mxGeometry relative="1" as="geometry">
                        <Array as="points"/>
                        <mxPoint x="330" y="230" as="sourcePoint"/>
                        <mxPoint x="236.31999999999994" y="210" as="targetPoint"/>
                    </mxGeometry>
                </mxCell>
                <mxCell id="154" value="contains" style="edgeLabel;html=1;align=center;verticalAlign=middle;resizable=0;points=[];" vertex="1" connectable="0" parent="153">
                    <mxGeometry x="0.1486" y="-1" relative="1" as="geometry">
                        <mxPoint x="-3" y="-1" as="offset"/>
                    </mxGeometry>
                </mxCell>
                <mxCell id="155" style="html=1;entryX=0;entryY=0.5;entryDx=0;entryDy=0;exitX=1;exitY=0.5;exitDx=0;exitDy=0;exitPerimeter=0;" edge="1" parent="1" source="2" target="158">
                    <mxGeometry relative="1" as="geometry">
                        <mxPoint x="70" y="350" as="sourcePoint"/>
                        <mxPoint x="200" y="240.00189913043482" as="targetPoint"/>
                    </mxGeometry>
                </mxCell>
                <mxCell id="156" value="uses" style="edgeLabel;html=1;align=center;verticalAlign=middle;resizable=0;points=[];" vertex="1" connectable="0" parent="155">
                    <mxGeometry x="0.1486" y="-1" relative="1" as="geometry">
                        <mxPoint x="-3" y="-1" as="offset"/>
                    </mxGeometry>
                </mxCell>
                <mxCell id="157" value="Acceleo" style="shape=image;verticalLabelPosition=bottom;labelBackgroundColor=default;verticalAlign=top;aspect=fixed;imageAspect=0;image=data:image/jpeg,/9j/4AAQSkZJRgABAQAAAQABAAD/2wCEAAkGBxAPDxAPDxIQEBAVEBEXEBAPDw8QFRAPFREWFhUSFRUYHSggGBolGxUVITEhJSkrLi4uFx8zODMsNygtLisBCgoKDg0OGBAQFysfHSUtLS0tKy0tLS0uLS0tLS0tLS0tLS0tLS0tLSsrLS0tLS0tLSsrLSsrLS0tLS0tLS0tLf/AABEIAOEA4QMBEQACEQEDEQH/xAAcAAABBQEBAQAAAAAAAAAAAAAAAQIDBQYHBAj/xABFEAACAQIDBAUHCQUHBQAAAAABAgADEQQFIQYSMUEiUWFxgQcTMlKRscEUIzNCYnKCodEkNJOy4RZDU2NzktIXg6LC8P/EABoBAQACAwEAAAAAAAAAAAAAAAABAgMEBQb/xAAxEQEAAgIBAgQEAwkBAQAAAAAAAQIDEQQhMQUSQVETIjKBM2FxFSM0QlKRobHR4cH/2gAMAwEAAhEDEQA/AO4wCAQCAQCAQCAQCAQGVKqr6TKveQIRM6eLE53hqfp1UHiT7pOpYrcjFXvaHlfarBD++U9148ssU8/j/wBRg2twX+KPZHllH7Qwf1Jk2mwRtaul+rpfpGpWjm4J/nh7qWPouLrUQj7wEhnrkpbtMS9AMLlgEAgEAgEAgEAgEAgEAgEAgEAgEAgRYjEpTXeqMqL1sQBCtrVrG7Tpl8z26oJdaKtVax6Vt1Q3bfiO6WirnZfFMdelI83+mZx22GLq3AYU1I1VB7idRLeWHOyeI5r9p1+jxrgsbiLXWvUB4F98r7TpJ6Qw/Cz5e8TP6vbS2Mxh4oi99RT7pHmhmr4dnn0193tTYKueNWkOyzmR5maPCsn9UH/2Brf41L/a8eZP7Kyf1Q89bYbFD0TTfuO775Pmhjt4ZmjtqXgxGy+MpdI0ie2mwc/lHmhhvwc9Os1/sip5njcM2r1kPJau8Rb7rSdRKsZ8+Ge8x+q7y/byqlhXQVBbVk0Yn3SvlbmLxW8fXXf6NXlW0uFxNgjhX06D9E3PIX4+ErMTDp4eZiy9p6+0riQ2hAIBAIBAIBAIBAIBAIBAIDXcKLsQBzJNhCJmI6yx2ebcol0woFRv8RvQB7Bz/KWirlcjxOtemLrPv6Mj+14+pf5ys3sVRfh1WF5fpDl/vuTb1t/ppcs2EGhxNT8FL/l/SVmzoYvC/XJP2j/rT4DJsNQ+ipIDa28RcnvJldy6OPjYsf01WANuGndIZxeDYvALwC8A3oNo6tJXBDqrA8bgHSETFbd4UWYbH4Sr6Cmi1tDTOl+srzlotLRy+H4b9o1P5Mnm2yOJoXen86g+tT0YDrI5eEtFoczN4flx9a9Y/JHk21WJwpCMTUpi16b3BUdQPLjE1iUYOflxdJ6x7S6Dkuf0MWPm2s/Om2jD9RKTGnc4/Lx5o+WevstZDZEAgEAgEAgEAgEAgEDw5tmtLC0zUqsB6q82PUBJiNsObPTDXzXlzHPNoq+OYKeil+jSS+pPX6xl4jTz3J5mTkTrtHsuMg2MLBamKuo4iiNCR9o8u4ayJt7NnjeHTPzZf7f9bbD0UpKEpqEUclAHjKuxWtaRqsahLeQtsXhJbwjYvBsXgF4SLwjYvCdi8BLyQb0hG1PnWz1DFAlhuVOVRAAb9o5+MtE6avI4mPN36T7w5/muUYjAuCbgfUrU7gHsvyPZLxO3DzYMnHtuftMNVsxtpvlaOLIVuC1eAY/a6j2ys19nT4niUW1TL39/+tuDKOuIBAIBAIBAIBAIFVtDnlPBUt99XN/N0+bN+nbJiNtbk8mmCu7d/SHK8Viq+Or3a71GPRUcB2AchMnZ5zJkycjJues+zebN7OphQHez1yNW5Jfkv6ykzt2eLw64fmnrb/S/3pDd2W8GxeDZbwbF4Tst4RsXg2LwbF4NkvCdi8GxeEbJeDZLwbR4iktRSjgMpGqkXBhW1YtGrRuHO9p9mzhialO7UCe80z1Hs7ZeJ24XL4c4vmr1r/p69kdrGoFaGIJakdFc6mn/AEkWqzcHnzTVMk9PSfb/AMdJRwwDAggi4I1BEo750AgEAgEAgEDw5zmlPCUWrVDoPRHNm5KJMRthz5q4aTezj+ZY+ri6xqPdmY2VRrYclAmSI08vmzXz381u7e7L5IMKm+9jXYdI+oPVHxMpM7dnicaMVdz9U/4XoaQ3Nnb0J2UGDYvBst4NlvBsXhOxvQjY3oNjeg2LwnYvCNkvBsl4NkvBshaDZlQBgVYAqRYg6gjqMInUxqXN9qMj+TPvJc0WPRPqn1DLxO3A5fG+FbcfTK52F2m82wwtdugT807HRT6pPVItHq2/D+b5ZjFeenpP/wAdFlHdEAgEAgEBtRwoLE2AFyTyEImdRuXH9q88ONrki4pLpTW//ke0zJEaeY5vJnPk6fTHb/q02JyoE/KXGg0pA8zzb/7ti0s/Awbn4lvs2gaUdbZQ0GzgYNnAwnZbwbF4Ni8Gy3g2LwbF4Ni8GxeDZN6AXg2S8GyEwbIWhGzS0G3mx+GSvTak4urD2HkRJY8lIyVmsuXZhhGo1Gptoytx6xyIl3nclJpaaz6Ok7CbQfKaXmahHnqYA++nJu/lKWjT0Hh/L+LTy2+qP8w1Uq6IgEAgEDD+UnOtxBhEPScXqcdKfIX4ay9Y9XJ8U5Plr8Kvee/6f+sBgsOarpTXixA7hzPgJdw6Um9orHq6jhqS00WmuiqAB+sxvRUiK1isJw0hbZwMlOzgZBsoMJOvBsXg2LwbF4Ni8GxeDYvBtLRol+Gg64XrWbPclBQLWv3yGeKREIKuE5r7DJ2x2x+zyOCDYi0MM7juYTCNmkwbNLSUbNLQbZXbbA7yrXUajovbmvI+Hxlqubz8e4i8MtlmPfDV6ddOKsLjTpLzXxFxJ1tz8WW2K8Xr6O14DFrXpJVQ3V1BBmJ63HeL1i1e0vRC4gECLE11po1RvRVST3AXhW1orWbT6OH5njmxNepWbi7EjlZeA05aATLEPI5ss5ck3n1XexmHvVaqeCCw7GP9JEtrg03ebezZBpV1dnhoNnhoTs4NCdnBoNl3oNjeg2N6DY3oNjeg2N6DZ1NwCLi46pCYmN9VrQrqw6PskNut6z2SwuWAx6YYWIvCJiJ7vDXwJGqa9hk7YLYvZ4XuDY6HqksE9O6MtCNmFoRt5sdSFWlUpngykfGFMlYvWaz6uZ1UIJB4g2PfMjz8xpu/Jjm30mEY/bp93Bhfq9GUtHq7XhOfvin9Y/8AroEo7QgEDG+UzMvN4ZaAI3qrC4I/u11JHiFlqw5Xiuby4opHr/pzJJkefhtNkkC0C3NnN/DQSkurwo1j3+a9VpDc2kDQnZ4aDZ4aE7O3oNjeg2N6DY3oNjeg2loUWc2XxPISF6Vm3YtegyekNOscIL0tXuh3pKmwHtwhO3sw+YkaN0h185GmameY7rKjWVxdTeQ2a2i3ZJCxIEdagrjpC/bzhW1It3VGPwZpjeBut7dslqZcXk6q9mksGzC8G2AzuluYiqPtX/3ay8OLnrrJMIMpxxw+IpVl+q40JIBHDXsiVcGWcWSt/Z3KlUDqGU3UgEEcweBmJ6+JiY3B8JEDkXlCx/nscyhrpTAUD1W+uPaJkr2eZ8Ty+fPMe3RnklmhDb5Dph08T7ZSXX4/THCzVpDPtIrQnaQNCdnhoNl3oTsb0GxvQbG9BtYYPLy3SfQdXMyNtjHhmetlsiBRYCw7JDbiIjpBSL8YS8OJy0NqnRPVyk7a98ET1joq61JkNmFu3lJatq2r3Rb0K7OWoQbg2PZBFpjssMNmltHF+0SNNmnI9LLOlVVhdTcSG1W0WjcHQlXZ63zY+8JMNfkz8rPs0lobRs0G2N2k/eHPYn8svDlcr8SVNUElqy7BsJjvPYGlcgsg3CByC6L+QmO0dXqfD8vxMFd+nRoZVum1GsCeoGETOnBcfiTWrVap4vUZj3kzM8bkv572t7ybThENhkdS9BewkeyVl0+Pb93CzV5DPtKrQnaRWhOzw0hOzt6DY3oNjeg2N6Db1YbMHTnvDqMaZaZ7VXGFzBKml91uo/DrkablM1bvXIZhAa6BhYgEdRhExE91Zisq509Psnh4GTtrZOP61VVVGQ2YEHtktS0TWdTBm9Cu1zkXose2RLd4vaVpIbSo2iayL96TDV5c/LDPM0s5+0TPCNsln7XxD9y/yy0ObyJ/eSqXkteW98lOL1xFDue/sW0pd2vB7/XT7uhyjtq3aOuaeDxFReK0mI9kmO7Byb+TDe35S4YpmV4+E6QtDSbP1fmyvU3v1lZb3Gt8ulwrSGztKrQttKrQnaQNCdnb0G1hgMtap0m6Kfme6RtsYsFr9Z6QtK2V02WwG6eRHx65G23bj0mNR0U+Ly+pT1tvL1j4ydtPJhtT84eO8lg2Lwbe/CZq6aHpr28R4yNNjHybV79YXWFx1Or6J19U6GV03ceat+z0wykgVW0B6Kd5kw1OX9MKO8s0Nr/IPoyftn4SsuhxPoWchtKTadrLT7z8JMNLmT0hm2aWc/aJnhG2QzCpvVHP2jbuHCWczJO7TLwvJY5afyaYncx2569Nh7AW+Erbs6PhVtZ9e8OtTG9IptsDbAYr/Sb3Sa92rzv4e/6OJJMryUJ0haFrk1bde3JhbxkS2MFtWaBXkNzaZXkLbTK8J2kVoTtZZTUohvnb3v0b+jIls8eccT87TKwIuLEciJV04nfY6EkgeDGZSlTUdBuscPESdtfJxq36x0lRYzBVKXpC49YcP6SWhkxXp3eXeksWyh7ajQ9Yg20uR12qUiWNyGIB7LCVl1ONebU3KxkNhS7SHSn3t8JMNLmz0hRb0s0NtHs8fmT98/CVl0uJ+H91pIbTP7WNYUu9vhLQ0OdPSrMu8lztvJja+4jHs075Kl76rMss8s50vO8KrzYJ7ZjRP3x7VMi3Zu+HTrkVdmmJ6lS7ZfuGJ/0mk17tTnfw9/0cSQzK8nCZDC0PTSa1iOIhaJaPDV95Q3t75Vu1tuNvSjwvtZ4HLq1VSyLoOZ0v2CRtsY8OS8biETqyHdYFT1EQpMTWdTBQ0I29WEzCpSPROnNTqDGmXHmtTtK/wOdU6lg3Qbt4HuMrp0MXKpfpPSVmDIbQgBF9DrAze0GFSmUKC29vXA4aWloczl460mJj1VG9Jae2m2a+hP3z7hKy6nC/D+61kNtRbUH6L8XwloaHOn6VDvSXP202zf0B++3wlZdTh/h/dayG2ze2TW8z+P8A9Zarnc+fp+7LO8s5u1Pm1e53BwHHvkw1s1t9FS5kteUDmFV1sKL5hQ72/lMi3ZueH/xFXaZieqU+14/YMV/ov7pMd2rzY3x7/o4cpmV5JMhhL0UzC0LLK3bfCKCxY2CgXN+wSJZsUzvyx6ugZLs1a1TEceIp/wDL9JSZdzj8L+bJ/Zp1UAAAAAcAOUq6MRrshxeDp1RZ1B6jzHcYUyY63jVoZ/H5A6Xakd9fVPEfrLbc/Lw7V606qdrg2III4gi0lpTuJ1JLyTb3YHNatHQHeX1W19nVI0z4uTfH27NTl2MFdN8AjWxB65WYdXDljJXzQ9UhlZ7as/Rfi+EtVzufP0/dQXkuftqdmfoD98+4Ssutwvw/utpDbZ7attaX4vhLVc7nz9LPlpZz9tZsz+7/AIm+EpLrcL8J6MfmtGgOmwv6o1PsEaZcvIpj7yx+e5x8pZbLuqt7XOpvbj7JaI05HJ5HxZjprSixOI3Rfny75LUtfUKSq17mS1Zl53MlSUDmEND5O0vmNLqC1L9nQMrbs3vDI3yI+7skxvUPNmOHFWjUptwZCD7IUyV81Jj3h8/nQkdpmZ4tIhhMJ0MJh6sNXZGDIxVhwYcQZC9bTWdxOpbbIdtXFkxQ3hyqLx8Rz75WauvxvEpj5cvX822weNp1l3qTq47D7xKOxjy1yRus7TwuIHlxuX06w6a68mGhHjJ2w5cFMn1Qyub5acOV6W8rX3eR065aJ25XIwTimOvSVfeS1ttfs0P2cdrGUl2eF+EtpDbZra09Kl3N8JarmeIT1qz95Zzmx2bH7OvaTKS7XD/ChZyG0zG1zdOn3GWq5fiE/NVnWeWc7b0rm9VKYpI24utyvE37ZGmaORetPJWdQrXqX4698lrzLz1aoAuYVm2lXiKpY3PhJa9rbeRzJVQOYVQsYVbTyU0L4ms5Ho0tD2lgPcZW7reD13ktb2h1OY3oQRA4XtXgzQxuIQjdHnGZB9hjdfymWOzyPMx/Dz2j81WpktZMhhaE6NCXoRpCyzy/MHpMGRip6wff1xMM+LNak7idNllO14NlxA/7ij3j9JSautg8R9Mn92pw9dKihkYMp4FTcSrp1tFo3WdpIWZrbM6Ue9/cJarmeI/y/dmg0s5m242c/dqfj75Se7ucP8GFlIbTLbXt06Y+yZarleIT81VBvSznNvs/+60j2H3mUnu7vE/Bqix+0FGloD5xupeHtiIVy83HTt1llM0zNsQwZgBYWAF5aIcnPnnLbcq9nksG0TPCNoKtUCSrNtPBWqk8YYpnbzO0lR53MIQsYVRMYQ6n5K8GUwr1Tb5yp0Tzsuh/MTHbu9F4Rj1im3vLbSrqiBzLyrZbu1aWJANmG47X+sB0RbuBl6S4Hi+LVq5I9ejBKZdxkqmFoTI0JTo0LJkaQl6aVUiF4l0jYfXCX63b3CUt3eg8O/B+7QSrfZXblreY/H7hLVcrxOfp+7Lh5Zy9ugbNn9ko/dP8xlJ7vQcP8GqzkNljtsX+eQfY+Jl6uN4jP7yP0UBeS0NpqmY1DTWkWO4o0UaDjzjS85rzWKb6Q8peSx7MapCNomqQjaCpX6oVmzyu8McygdpKEDtCqBzCELGFTVXeIA4kgDxgiNzqHesgwHybDUaNgCqLvW4b9ukfbMUvY8fH8PHWntCwkMwgUu1+VDF4OrTsN8DepkgmzLrp2kXHjJidS1eZg+Nhmvr3hw4ggkEWI4g8j1TK8kcpgSq0JTI0JTI0LJleQl1LYcfsVM9Zb3ylu70nh34EL+VbzG7fVLNRHY0vVx/FJ61ZUVJZy9uibO11TA0Wdgq7huWIA9IzHPd6DiWivHrMzp4cy2vpp0aA84fWOij9ZMVYc3iNa9KRtlcfmNSu+/UNzawsLADqltacrLmtlt5rPN5ySxbNNSDZjVIRtG1WEbQu8KzKJnhCF2hCF2kqoXaEIWMIRkwhpfJ9lPyjGKxF6dLpNcXBP1VPfr7JW09G/wCG4PiZome0dXZZjeoEAgEDjnlAyT5Lii6i1Kr0l6g31l+PjMlZeY8S4/wsvmjtP+/VlxLOcephKVWhKVWhKVXhZ1vYf9wodx/mMxW7vTeH/wAPVeyG6wPlDqfP0h/l3/My9XD8Un95WPyZYPLOXtM+KdlVSzFVFlW+ijsELze0xETPSDN+Fdl85Bsm/Bs0vBs0vCNo2eEbRs8IRM8lCJnhCJmhCJmhCImEEhDs+wmSfJMKpYWq1LNU0Fx1JccbfGYrTt6rgcf4OLr3nrLSSG8IBAIFRtRky43DPSNg/Gm1gbOOHgZMTprcrjxnxzWe/p+rh2IotTdkcFWUkMCLEETK8las1tNbR1gwGFT1MJSK0JSK0JdV2ZzWhhsswzV6ipdGsCdWsx4DiZjmNy9Hxc+PFxqTeddFRm+37NdcKm6NfnHFyeogcvGTFWrm8VmemONfnLJ4nG1KzF6rM7Hmx93VLOXfJa87tO5MDwqcHhOy78GxvwbBeDZpeDZpeEbMLyTaNnhG0bNCETNCqNmhBhMBsIazye7P/Kq/nnHzNIgkH6z8QPDQytpdPw3i/Fyeee0f7dfExvSiAQCAQCBg/KLswaoOMo+moHnUA9JR9Ydolqy5HifD88fFp3ju5hMjzwEBwaEnhoEgf+nZCTw0JSB4ScHgODwku/AN+Am/AQvAaXhBhaAxmhBhaEIy0IMJgNhCwyTKauMrLRpDU+kx4IvNjImdM/HwWzXilXcMoy5MLRSjTACqNTa283Nj2mYpetw4q4qRSvaHshkEAgEAgEBCL6GBy/bzY80S2Kwyk0jc1aY40z6w+z7petnn/EeB5ZnLjjp6x7MJLuOWAoMBwaEnhoScHgODwku/Bsu/Bsb8GxvwbIXgNLwg0tAaWhBhaA0mEEgenLsDUxFRaVFS7sdAOQ5k9QiZ0yYsVslopWOsuz7KbPJgKO6LNVbWo/WeodgmKZ29VxOLXj01Hf1leSG0IBAIBAIBAICEX0Oogc22x2FKlsRg1uupeiPq9ZTs7JeLe7hc7w3Xz4Y/WP8An/HPiLGx0PMHSxl3FJCCwFvAUNCS70Bd6Au/AN6Ab8BC0BC0BpaAhMIJAIFhkuT1sZVFKit/WY6Ki9ZMiZ0z4OPfNby0h2HZnZujgEsnSqEdOoRqewdQmOZ29PxeJTj11Hf1ldyG0IBAIBAIBAIBAIBAye1GxNHF3qUbUa17kgdF+8dfbLRbTncvw+mb5q9LOW5rlFfCPuV0ZDrYkdFrc1POZInbz2bBkw28t408MMIgEAgLeAXgF4BeAQEgEBYABA1mzWw9fFWqVt6jR0IJFmcfZB98rNnT4vht8vzX+WP8up5XllHC0xToIEXnbie0nnKTO3ocWGmKvlpGoeyQyCAQCAQCAQCAQCAQCAQPPjcFTroadVFdTxDC8KXpW8eW0bhhc78m4N3wj7v+XU4dtmHutLxZyM/hMT1xTr8pYXMcmxOGNq1J00ve1xbruNJaJiXIy8fLin566V8lgEAgEAgEAgEB1OmWIVQWJ4BQST4CExEz0hpcl2IxeJsWXzNM2O9U0JUnkOvvtKzaG/g8NzZOsx5Y/P8A46DkGxmFwlnt52qLfOOOB11VeXGUm0y7XH4GLD11ufeWkEhvCAQCAQCAQCAQCAQCAQCAQCAQG1aauCrAMp4hgCD3gwiYiekqHM9jcFX3iaQRz9emStu4cPykxaWnl4GDJv5dT+TOY3yZKSPMVyo5+dXeP5WlvO0b+Dx/Jf8Aup8V5OsarWpmnUHrb25+Rk+aGtbwnNE9JiUH/T/MPUp/xVjzQp+y+R7R/cn9gMw9Sn/FWPNB+y+R7f5KPJ9mHqU/4qx5oP2XyPaP7rDC+TTEMoNStTpnmu6X/MGR52evg+SY+a0QvcB5OMKhVqr1KpHpKSApPgL/AJyPNLbx+E4q9bTMtNl+TYbDgCjSRLcDa7D8R1kbb+PBjx/RWIe+QzCAQCAQCAQCAQCAQCAQCAQCAQCAQCAQCAQCAQCAQCAQCAQCAQCAQCAQCAQP/9k=;" vertex="1" parent="1">
                    <mxGeometry x="400.14" y="340" width="60" height="60" as="geometry"/>
                </mxCell>
                <mxCell id="159" style="html=1;entryX=0;entryY=0.5;entryDx=0;entryDy=0;exitX=1;exitY=0.5;exitDx=0;exitDy=0;exitPerimeter=0;" edge="1" parent="1" source="2" target="157">
                    <mxGeometry relative="1" as="geometry">
                        <mxPoint x="80" y="360" as="sourcePoint"/>
                        <mxPoint x="220" y="250.03499999999997" as="targetPoint"/>
                    </mxGeometry>
                </mxCell>
                <mxCell id="160" value="uses" style="edgeLabel;html=1;align=center;verticalAlign=middle;resizable=0;points=[];" vertex="1" connectable="0" parent="159">
                    <mxGeometry x="0.1486" y="-1" relative="1" as="geometry">
                        <mxPoint x="-3" y="-1" as="offset"/>
                    </mxGeometry>
                </mxCell>
                <mxCell id="161" style="edgeStyle=none;html=1;entryX=0;entryY=0;entryDx=0;entryDy=0;exitX=1;exitY=1;exitDx=0;exitDy=0;" edge="1" parent="1" source="188" target="157">
                    <mxGeometry relative="1" as="geometry">
                        <Array as="points"/>
                        <mxPoint x="330" y="260" as="sourcePoint"/>
                        <mxPoint x="250.03500000000008" y="220" as="targetPoint"/>
                    </mxGeometry>
                </mxCell>
                <mxCell id="162" value="contains" style="edgeLabel;html=1;align=center;verticalAlign=middle;resizable=0;points=[];" vertex="1" connectable="0" parent="161">
                    <mxGeometry x="0.1486" y="-1" relative="1" as="geometry">
                        <mxPoint x="-3" y="-1" as="offset"/>
                    </mxGeometry>
                </mxCell>
                <mxCell id="163" style="html=1;entryX=0;entryY=1;entryDx=0;entryDy=0;entryPerimeter=0;exitX=0.75;exitY=0;exitDx=0;exitDy=0;" edge="1" parent="1" source="157" target="183">
                    <mxGeometry relative="1" as="geometry">
                        <mxPoint x="610" y="376" as="sourcePoint"/>
                        <mxPoint x="260.0350000000001" y="230" as="targetPoint"/>
                    </mxGeometry>
                </mxCell>
                <mxCell id="164" value="parses" style="edgeLabel;html=1;align=center;verticalAlign=middle;resizable=0;points=[];" vertex="1" connectable="0" parent="163">
                    <mxGeometry x="0.1486" y="-1" relative="1" as="geometry">
                        <mxPoint x="-1" y="15" as="offset"/>
                    </mxGeometry>
                </mxCell>
                <mxCell id="2" value="" style="shape=umlActor;verticalLabelPosition=bottom;verticalAlign=top;html=1;outlineConnect=0;points=[[0,0.33,0,0,0],[0,1,0,0,0],[0.27,0.1,0,0,0],[0.5,0,0,0,0],[0.5,0.5,0,0,0],[0.77,0.1,0,0,0],[1,0.33,0,0,0],[1,0.5,0,0,0],[1,1,0,0,0]];aspect=fixed;" parent="1" vertex="1">
                    <mxGeometry x="80" y="210.07" width="30" height="60" as="geometry"/>
                </mxCell>
                <mxCell id="174" value="Source Code" style="shape=note;html=1;backgroundOutline=1;darkOpacity=0.05;size=13;labelPosition=center;verticalLabelPosition=bottom;align=center;verticalAlign=top;aspect=fixed;spacing=2;" vertex="1" parent="1">
                    <mxGeometry x="570" y="345" width="40" height="50" as="geometry"/>
                </mxCell>
                <mxCell id="158" value="Papyrus" style="shape=image;verticalLabelPosition=bottom;labelBackgroundColor=default;verticalAlign=top;aspect=fixed;imageAspect=0;image=data:image/jpeg,/9j/4AAQSkZJRgABAQAAAQABAAD/2wCEAAkGBxAQEBAREBAPFREVFxUWEBIPEBAPFxUSFBIWFhgRFRMYHSggGBolGxMVITEhJSkrLi4uGB8zODUsOCg5LisBCgoKDg0OGxAQGi0fHx8tLy0tKy0tLS0tLy0tLS8uLy0tKy0tLS0rLSswKy0rKy0tLy8tKy0tLi0tLS8tLy0tLf/AABEIAOEA4QMBEQACEQEDEQH/xAAcAAEAAQUBAQAAAAAAAAAAAAAABQECBAYHAwj/xABEEAACAQICBgYGBwYEBwAAAAAAAQIDEQQSBQYhMUFREyJhcYGhBzJCUpGxI2JygpKi0RQzssHC4hUks/AINENTg9Lh/8QAGwEBAAIDAQEAAAAAAAAAAAAAAAEFAgQGAwf/xAA0EQEAAQMBBQUGBgIDAAAAAAAAAQIDEQQFEiExQRNRYdHwMnGBscHhBiJCkaHxFCMVM1L/2gAMAwEAAhEDEQA/AO4gAAAAAAAAAAAAAAAAAAAAAAAAAAAAAAAAAAAAAAAAAAAAAAAAAAAAAAAAAAAAAAAAAAAAAAAAAAAAAAAAAAAAAAAAAAAAAAAAAAAAAAAAAAAAAAAAAAAAAAAAAAAAAAAAAAAAAAAAAAAAAAAAAAAAAAAAA8q+IhD15Jd72/A867tFHtTgYFXTdNeqpS/KvM1K9oW49mJlGWNPTsuEIrvbf6HhO0qulJlZ/jlT3afwl+ph/wAjc7o/nzRlfT07L2oJ/ZbXzM6dpVfqpTlJ4XH06i6r28YvY/8A6b9nUW7vszx7jLIhJNXTTXNO57kTE8lwSAAAAAAAAAAAAAAAAAAAAAAUlJJNt2S3tkTMRGZEFj9Mt3jS2L3uL7uRU39fM8LfCO9GUTKTbu22+Le0rpqmZzKFLkZFLjIXIyFxkIzaaabTW5rYTFUxOYEvRxLnF1IO1SP7xLdJe/b5nRaHVRfp3aucPC7TNP56filsDi1Vjfc16y/n3GzVTuy9LVyK4ZJi9QAAAAAAAAAAAAAAABSUkldtJcW9gEVi9ZcHS2Srwb5U71P4b2Aiq+vVBepTqy+1lgvm35AYU9eaknaFCF3sScpTbb4WSQEppbGzajTk45kk6uS6We18q7EU+0NRmrs45RzRKMuVmUKXGRFa0Y2vQwlWphqeerFLLGzlZOSTnlXrWV3bsPbT00V3IprnEDj0tbtIOV3jK2a+5OMVfl0aWXwsXn+LZx7EJdb1PxmJrYSnPFxy1XffHI5QXqzcPZb8OdlcpNVTbouTFueCE1c18oUuRkZuiKuWtFPdLqyXNS4fGxt6K5uXo8eCXpCtKhVdvZbTXONzrZjepVkVTar9zZqNRTipRd09qNWYxOFpTVFUZheQkAAAAAAAAAAAACI0zrJhcJsq1Vn4U4def4Vu73YDStKekStO6w8I04+9O1Sffb1V5kDWcZpatWd6tWc/tSbXhHcvADwVcC5VwJvU2Kq42hF7k3L8EXJeaQGyVajlJye9tt+LucrVXNVU1T1YrbmOUKXGQuRkefRQvmyxzc8qv8Sd6cYyL7kZC5GRS4yL6M7Si+TT+DMqKsVRPdIz9N7K8/B/lR3Fr2YVmp4XJZmruM2uk3v2w7+K/n4MwvU9XtpLvHclPmusAAAAAAAAAAAw9K6To4Wm6tepGEFxlxfuxW+T7EByzWX0kVq7lDC3o0t2f/qyXO/seG3t4EZGmvE3bbd29rbd23zbAqq4FVXAuVcC5VwJnVHS0aGNw9SbShmyzb4RmnHM+xZk/ADfcdh3SqSg+D2dsXuZy9+1Nq5NE+oYMe545FLkZC4yFxkUuRkLjIpcZF1PbJLm18yaeNUQM7T0/wDMVOzKvyo7y1H5IVWqn/bLCo13CUZLemmvA9JjMYeFNc0zEx0bzQqqcYyW6STXijQmMThe01RVETHV6EMgAAAAAAADXtctbaGjaWap1qsr9DRi7Sm1xfuxXGXzewDhGntY8Rjqrq4id37EVshCPuwjw7974kCPVchC5VwKquErlXCHrh5SqSy04ynL3acXN/BbQlN4TVXSVX1MFX/8kVS/jaJEpR9HmlJb6VOP260P6bgb3q9obSCpxoY1UJ04q1KtCrKVSCtsg042nHxTXbw19RpqL9OKufSUYemL0PWp+zmjzht/LvKO9oL1vpmPDyRhHy2Ozunyew0p4TiUKXGQuRkUuMhcZFLjIy9FU89ekvrJ+Edv8j30lO/fojx+XEh46Qr56tSXBylbuvZeR3lEYpiFHdr3q5nxY+Yyw88tt1WxGai48YSa8HtXnc1L9OKs9620Ne9bx3Jk8G6AAAAAAAgdc9aKOjMLKvV2yfVo0k7OpUa2RXJcW+CQHzVpjTlfGV54jETcqk3t4KK4QgvZiuC+bbZihiKuBcq4GZovCV8VU6PDUalWfGNKLla/GT3RXa7IDougfRDi6lpYytChH/t0rVqnc5epF92YnCW+6K9G+jKFr0OmlxliZOrf7nqeRI2nDYanSio04QhFbo04xgl3JAeoAAAAtnTjL1kn3pMxqpirnGRh19E0JrbTiu2CyPyNavQ2K49mI93D5Iw1XSuCdCplvdNXi+zt7TntXp509zd5x0YywrmtkLkZC4yJHREska9f3IWj9uexf77S42LZ3701d31+0PO7XuW5qQ2Y7Jz+TMDKf1Pr/Szh70b+MX/czX1EfliVhs+v88098NuNNbgAAAAAeeJrwpwnUqSUYQi5TlJ2UYxV3JvkkgPl/X3WqelMXKs7qjG8MNTezLSv6zXvStd+C4EIa6QPXCYapWqRpUoTnUk7QhTi5Sk+xIDrep/oabUauk5tcf2WjK3hVrL5Q/EThLrei9GUMLTVLD0adKmt0acVBX5u299r2kjLAAAAAAAAAANP1oxClXyr2IpPve1/NHNbVuxVf3Y/TDGUPcrMoLjIpcZGfpafRUaVD2pfS1e97Ixfh8kdtsfS9lZiZ5zx9fxCs2jdxi3Hvn6IbMXCryZgZS2q1W2KprmpL8jf8jxvx+SW3oasX48c/JvpXr8AAAAADk/p21m6OlT0fSl16y6TEW4UVLqw+9KL8INcSJHESEJ3VDVPFaUrdHh42hG3TVpp5KafP3pcora+xbSR9D6nam4TRdPLQjmqyS6WvUs6k3yv7MeUVs73tJS2IAAAAAAAAAAAYWlsfGhTcnbNuhHnL9DV1epp09venn0jxRMtDqVHJuTd2222+LfE5GqqapmZ5yxW3MchcZGbomjGU3Op+6pLPUfYt0fF8Df2bpZ1F+I6Rxn6R66ZY1VRRTNVXKEVjcZKtUnUlvk725LgvBWR9BppimMQ5q5dm5XNU9XjnJYZM4wZSerEv83Q75f6cjyv/wDXLa0U/wC+n10l0YrXRgAAAAtqTUU5SaSSbbfBLa2B8oa1aaePxmIxTvapNumnfZSj1acezqpeLZCGfqLqfW0riOjheFCFniK1r5IvdCPBzfBcN75MPpPQmh6GCoQw+GpqFKG5Le3xnJ75SfFslLPAAAAAAAAAAAHnXrRhGU5O0Yq7fYjC5XTRTNVXCIGhaV0hKvUc3sW6EeUf15nH6vVVai5vzy6R3R65sJlh3NbKFLjIrG7aSTbexJcW+AjMziBk6crqjCOFg1dNTxElxqW2U78orzO+2Rof8ezmec8/X8KjaOozPZU9Ofkg8xb4VWTMDJmBlN6mxzYyn9VTf5XH+o8NTwty3dnRnUR4Z9fy6KVrowAAAAad6XNKvDaJxOV2nVSoR4fvXlnbtyZ34AfPuregq2PxNPDUF15+tJq8adNetVl2K/i2lxIQ+oNXNB0MBhqeGoRtCK2t2zTm/WqTfGTf6bkSlJgAAAAAAAAAAABqWtmk80ugg+rHbUfOXCPh8+45za+s3quxp5Rz9/d8Pn7mMy1y5SZYlxkUuRkZ9GqsNS/aJW6SV44aL27dzrNclw7TpNg7Om7V29ccI5efl+/c1dZqYsW8xznl5/Brkqjbbbbb2tt3bb3tnbYc1NUzOZUzDCMmYYMqZgZbd6PKF6lap7sVFd8nd/wo09ZPCIW+yaM11Vd0Y/f+m8mgvQAAAAce/wCIXHWhgMPzlVqy+5GMI/6svgRI2j0Taof4fhOkqxtiq6Uqt0r04b4UPBO7+s3yRI3kAAAAAAAAAAAAI/TmkFh6Mpe09kF9Z8e5b/A09dqo09mauvKPeiZc9lJttt3b2tvi3xOLmZmcywUuMhcjIysHRhaVWs2qEPXa3yk91KPOT8kWWzNn1ay7j9Mc5+nryed27TaomuvlCG0npGWIqOpKyW6EFuhBboLuPo9q1TaoiinlDlr9+q9XNdX9QxMx6vHJmBkzkGTODLpuo+D6PCQk11qjdR9z2R/Kk/Eq9VVm5ju4On2Za3LET/64+X8NgNdYAAAAA57p7V/9v1gwzqRvh8Hh6dad90q069Xo6fxpqT+xbiQOhEgAAAAAAAAAAAAGg6z6R6au0n1IXjHtftS+OzwOP2pqu2vzEezTwj6z67mEyiCtQAe+Bwsq1SNOO9729yXGT7Ej209iq/ci3Tzn1kYGsGk41JqlS/5eleNP68varPm38j6boNHRpbMUUx69c3L6/V9vcxHsxy8/LwROc3WjkzgyZwZMwMszQ+CeJr06K9p9ZrhBbZP4J+Rhcr3KZqe2ntTeuRbjr8urstOCilFKySSSXBLYkUkzl2cRERiFwSAAAAC2NOKbkkru2Z8XbdcC4AAAAAAAAAAAAI3WDHdBQnJPrPqw+0+PgrvwNHaGp7CxNUc54R758uaJlzs4pgqSAGXj6/7Lgm1srYm8I840I+s13uy8VyOy/DegiI7eqOM8vd9+f7K3amo7Kzuxzq4fDr5NPzHYOYyZgZMwMmYGTMDLpPo70N0dJ4ma69VWp34Ut9/vPb3JFZrLuatyOnzdJsjS7lHa1c6uXu+/k3E0lyAAAAAAAAAAAAAAAAAAABpOuWMz1lTW6mtv2pbflbzOW21f370W45U/OfswqQBTIAPXCYd1KkKa3yaXdd7/AAPSzam7cpojrOBG66Y1VcXOMf3dFKlTXJQ2P81/I+q6OzFqzFMOT2ne7TUTjlTw9fFBXNpXlwFwFwNg1O0A8ZWvJPoIWdR83wprtfHkvA19Te7OnhzlY7O0c6i5mfZjn5OvRikkkkktyWyy5FM6+IwqAAAAAAAAAAAAAAAAAAAFtWajFye5Jt9yVzGqqKYmZ6DmGJrOpOc3vk3J+LvY4K5cm5XNc9Zy83mYABK6vyUJVa7WyjSnP71rJfMudhWO01We6P5nh5sLlfZ0TXPSJloMpNttu7e1t8W+J9Kjg4eZmZzKhKAABJaB0NVxlVU6ast9SbWyEeb7eS4nldu026cy2dLpa9RXu0/Ge52LRejqeGpRpUlaMfjJ8ZSfFspa65rq3pdlYs02aIoo5QyzB6gAAAAAAAAAAAAAAAAAAAROtGIyYWpzlaC+89vlcrtq3NzS1ePD9/sieTQDjmAAAzpyyaNxs+M3Tpr8Sv5SZ1n4XtZqqq8flH3aW0a93S1+PD+WjncOQAAEvq7q9Wxs7QWWmn9JVa2R7Fzl2fI8L1+m1HHn3NzR6K5qauHCOsutaH0VSwtJUqMbLfJvbKUvek+LKi5cquVZqdbp9PRYo3KI+7OPN7gAAAAAAAAAAAAAAAAAAAANX15q9WjDm5S/Ckv6mUG3a/yUUd8zP7f2xqakc4xAAGXpd20U/rYheUP7TtfwvT/rmfGfpCs2vONN8YaUde5ZWEW2kk23sSSu23wSImcJiJmcQ3XVzUOdS1TF3hDeqSdpy+0/ZXZv7jRvayI4UcfFd6PY9VX5r3CO7r8e75+50TDYeFKEYU4xjCOyMYqyRW1VTVOZdFRRTRG7TGIh6kMgAAAAAAAAAAAAAAAAAAAAADTNd5/TU48oX+Mn/wCpzG3as3qae6PnP2Y1NdKRiAAJDH4adXRajThKcliF1YRcn6r4LvO1/DNdMWpzPKZ+iv2pbquWMUxmcwxNEagYipZ15Rox5bJzfgti8X4HRXNbRHs8VXp9jXa+Nyd2P3lvehdXcNhF9FT6/GpPrTfjw7lY0Ll+u5zlfafRWbHsRx7+qVPFtAAAAAAAAAAAAAAAAAAAAAAAABqus2iK9aupU4XjkSvmitqcnxfac/tPQ379+KrdOYxEc48WMwwaWqmJe90o98m35I1KdiaiecxHx+yN1nUNTl7dZ90IJebb+Rt29hR+uv8AaP7TupLDatYWG+Dk+dSTfkthvW9k6Wj9Off6wnEJWjRjBZYRjFcopRXwRYUUU0RimMR4JXmQAAAAAAAAAAAAAAAAAAAAAAAAAAAAAAAAAAAAAAAAAAAAAAAAAAAAAAAAAAAAAAAAAAAAAAAAAAAAAAAAAAAAAAAAAAAAAAAAAAAAAAAAAAAAAAAAAAAAAAAAAAAAAAAAAAAAAAAAAAAAAAAAAAAAAAAAAAAAAAAAAAAAAAAAAAAAAAAAAAAAB//Z;" vertex="1" parent="1">
                    <mxGeometry x="400.07" y="80" width="60.07" height="60.07" as="geometry"/>
                </mxCell>
                <mxCell id="175" style="edgeStyle=none;html=1;entryX=0;entryY=0.5;entryDx=0;entryDy=0;entryPerimeter=0;exitX=1;exitY=0.5;exitDx=0;exitDy=0;" edge="1" parent="1" source="157" target="174">
                    <mxGeometry relative="1" as="geometry">
                        <Array as="points"/>
                        <mxPoint x="460.14" y="299.9959612724757" as="sourcePoint"/>
                        <mxPoint x="560.2799999999999" y="376.89" as="targetPoint"/>
                    </mxGeometry>
                </mxCell>
                <mxCell id="176" value="generates" style="edgeLabel;html=1;align=center;verticalAlign=middle;resizable=0;points=[];" vertex="1" connectable="0" parent="175">
                    <mxGeometry x="0.1486" y="-1" relative="1" as="geometry">
                        <mxPoint x="-3" y="-1" as="offset"/>
                    </mxGeometry>
                </mxCell>
                <mxCell id="184" style="edgeStyle=none;html=1;entryX=0;entryY=0.5;entryDx=0;entryDy=0;entryPerimeter=0;exitX=1;exitY=0.5;exitDx=0;exitDy=0;" edge="1" parent="1" source="158" target="183">
                    <mxGeometry relative="1" as="geometry">
                        <Array as="points"/>
                        <mxPoint x="460.1399999999999" y="159.9999999999999" as="sourcePoint"/>
                        <mxPoint x="570" y="159.9999999999999" as="targetPoint"/>
                    </mxGeometry>
                </mxCell>
                <mxCell id="185" value="generates" style="edgeLabel;html=1;align=center;verticalAlign=middle;resizable=0;points=[];" vertex="1" connectable="0" parent="184">
                    <mxGeometry x="0.1486" y="-1" relative="1" as="geometry">
                        <mxPoint x="-3" y="-1" as="offset"/>
                    </mxGeometry>
                </mxCell>
                <mxCell id="183" value="Model" style="shape=note;html=1;backgroundOutline=1;darkOpacity=0.05;size=13;labelPosition=center;verticalLabelPosition=bottom;align=center;verticalAlign=top;aspect=fixed;spacing=2;" vertex="1" parent="1">
                    <mxGeometry x="570" y="85.03999999999999" width="40" height="50" as="geometry"/>
                </mxCell>
                <mxCell id="188" value="Eclipse IDE" style="shape=image;verticalLabelPosition=bottom;labelBackgroundColor=default;verticalAlign=top;aspect=fixed;imageAspect=0;image=data:image/jpeg,/9j/4AAQSkZJRgABAQAAAQABAAD/2wCEAAkGBxIQEhUQDw8QFRUVFRYQFhUQFxYVEBAQFRIWFhcVFRUYHSggGBolGxUVITEhJSkrLi4uFx8zODMsNygtLisBCgoKDg0OGhAQGjcfHyUrLS0rLS0uNy0tLS0tKy0tLS0tLS0vLS0tLS0tLSstLS0tLS0tLS0rLS0tLS0tLS0tLf/AABEIAOAA4AMBEQACEQEDEQH/xAAcAAEAAgIDAQAAAAAAAAAAAAAAAwQFBgECBwj/xABJEAABAwECCAgLBgQGAwEAAAABAAIDBAUREhchMVFUk9EGBxNBYXGBkhQVFiIyQlJTkaHSI2JygrHBM0NE8DRkosLh8SU1siT/xAAbAQEAAgMBAQAAAAAAAAAAAAAAAQUCBAYDB//EADERAQACAQIEBQMDAwUBAAAAAAABAgMEERIUIVEFEzFBYSIycYGRsSOh0SQzQsHh8P/aAAwDAQACEQMRAD8A9xQEFKXOetB1QWqf0UEqCvVcyCBBLTZ+xBaQRz+iUFRBy3OOtBeQEFF+c9aDhBbg9Ef3zoJEFapz9iCFBPS86CwgiqMyCqg7R5x1oLqAgICClLnPWg6oLVPmQSoK9VzIIEEtMcp6k3EVVbEEfpStv0DKfktTLrsGP7rf9tjHpM2T0qxVVwqjyhkb3dJuaP3K0L+NY4+2sz/ZuU8LvP3WiEMVp1En8OnAGlxN37LKmt1eX7MW35RbS6fH9+T9l2BlSSMJ8TehrS791t0rq5+60R+I3a17aaPtiZ/XZkH1scX8aojH4i1vyvW1WLR6zu17TE+kbMdUcM7Oj9O0KUdcjd6zYsY7h7Zd/wD7Gl2gQWafhZQSehXUx6pG70GeoayN7RgSMd+FwPP0ILSCtU5+xBCgnpedBYQRVGZBVQdo8460F1AQUuUOkoHKHSUFljAQCQEHPJjQEEExuNwydSDpyh0lB25ZrQXSOAA53cywvkrSOK07QyrS1p2rG8sHaHCZgyQMDj7Tsjewc6ptR4zWvTFG/wAys8Phkz1yTt8QwFRXyzHznuN/M3IPgFUZNVnzztad/iP8Qs6afFijpG3yvUNgPflkOANGd3/C3dP4Rkydck8Mf3aubxGlOlOsqtq8LbKsvJJK18gzsj+0lv6bsjVd4NDgw/bXr3nrKqy6vLl9Z6doaPbPHVUy+bQUUcTfbqPPfd0NFzR81vVxWn0hrNNtHhPaVVfy9fLcfViuY0dQbcvaNPPvJsw0lLhm+R8jzpe4kr0jT19zYFDH7A+ay8mnYc+Bx+wE8qnYcGhjPq/qnk07GztDAY8sUssZ+44j9FhOnqbM7ZvDO1aa7kbQkcB6s1z2/wCpec6efYbnYfHbKy5tpUQcPe0+Q9rHH9D2LytS1fWB6fwb4ZWfaAHg1RGXH+W/zZR+UrAZ2fJddk6kEPKHSUHeE3m45etBPyY0BBw9gAJACCtyh0lA5Q6Sg6oCC5FmHUg7oKlR6SDDWnbTIvNZc53Rmb1lVms8Tph+mv1W/tDf02gvl+q3SP5azVVb5Te9xPRzDqHMubzajJmtxXndd4sNMUbUjZZsuyZKg+aLm87jm7NJXtpNFk1E9Oke8vPUaumGOvWeyfhLwis+xWDlXh0xyiNtzp3i7Pd6jekrptNosWCPpjr391Dn1WTNP1T07PHOE/GBX2je1rzTQHJgREh7x994ynqyDrVjTDNurXaxDSNbluvOe85TetmuKtUp16AgICAgICAgIIH0rb8Jt7XDKHNyEHTkXlbDWyNm6cGONGuosGOrLqqAZL3G+dg6H+t+b4rWvitUez8GeFFLaMfKUsrXEekw5JY/xNz9q8hn6fOgtIOsuY9SCkgILXIN6UDkG9KCJ0pGQc2RBwagjKSEmduskRv6NYtq3i+9kRuGYvGd3QOhc7rvFJt/Tw+nddaTQRX68nr2YBUi1ZqyLFL7pJcjM4BzuH7BW+g8NnLtfJ0r27/+K3V66Mf0U9f4ahw941+RvorJwXPHmOmA+yi0hntEac3Wumx4/StYUdrTad5eRmNz3ulme6SRxwnPebySetbtMMV9eso2Sr2SICAgICAgICAgICAg60r5aeRtRSSOilbmLTdf0HSOheGTDE9YQ9t4u+NCOsupqwCGqzAn+FP+HQ7o+C1JiYnaR6Py7uhQOWyk5Dz5EEvIN6UDkG9KCVAQUpc560Gq25a2GTHGfNGQn2juXNeI+ITkmceOfp957/8Ai90Wi4I47+v8MKqdZNg4O2Lh/bSjzBlAPrdJ6Fc+G6DzP6mT09vlWa7WcH9Onr7/AA8341OMd1S91n2a/BjbeyWZvrnnYwjM0Zr+ddNjpNp2hR+rzeCAMFw/7W/SkVjaBIskiAgICAgICAgICAgICAgiqIA7KDc4ZQ4ZCCOdeeTHFoQ9b4reMcyltn2g4CUXNild/O5g1x9rQedaVqzWdpHrUecdaxF1AQV/COhBx4R0INd4TWnd9lGcpyvI5gfVVH4rruH+jSevv/hbeH6Xf+pf9P8ALWVzy5ZKxLP5Z97h5jc/SfZVh4fo+Yybz9sev+GnrdT5NOnrPo1Xji4eub/4qhdguIunew5Y2XfwmnmJGc82ZddSm/0w5yZmZ3l5PTwhguH/AGrClIrG0JSLIEBAQEBAQEBAQEBAQEBAQEENRBhDIbnDK0jIQeteeSkXhD3Hig4c+GsNJVP/AP1QtvBOeeJuTC/EOf4rRmNp2keleEdCgPCOhBAgp2pWiGMu5zkaNJWprNTGnxTb39vy2NLgnNkivt7tKe4kkk3k5T1rj7Wm07z6umiIiNod6eF0jgxovLjcO1TjxzkvFK+soveKVm0+kL3GBwgZY1F9ncZn/ZxD2pCMrz0DP8Au002CuHHFIcvnyzlvNpfPkDXEmSRxc95L3OOcuJvVpix8MfLySr1SICAgICAgICAgICAgICAgICAg6x1ElPLHVU7sGSJweCOjOPheOorwzY943hEvpbghwhjtGljqovWGC9vPHKPSaf7zELTGaQS+DnSEGmcIKvlJS0HzWeaNF/OVynieo83NtHpXo6LQYPLx7z6yxarW62TgpTBt87x91vQOcq/8H03rmn8Qp/E8/pjj8y8K4weEfjSvfK0nkYb4ohzEA5X9py/BdLhpvO8qhhFuJEBAQEBAQEBAQEBAQEBAQEBAQEBBt/E9b/gVcaR7roaq4C/M2Yeie3KPgtHLThlD6E8HOkLyEds1fIwvfz3XD8RyBamtz+Thtf39vzLY0uLzcsV/d54SuNdO7RsLiGjOTcOsrKtZtMVj1lFrRWJmfZZ4z7W8Asx7Izc+UeDMIzjCFz3Dpuv+K7fT4Yx0rjr7Q5TLknJebT7vBKeLBaArWleGGCRZJEBAQEBAQEBAQEBAQEBAQEBAQEBBFUA3BzSQ5hD2kZ2uBvBHaF55a71Q+pOAtui0KGCqyYTmYMgHqzMOC8fEH4rQmBS4Y1V+BGDpef0H7qh8ay/bjj8rjwvH91/0ayqBbsrwapjJNfdfgjC7cwVl4Vi48+/bq0fEMnDh27tJ41L661IbPDiGwxmV92W5z8oyabsHvLsMfdzyCi4tWyf1Lh+UL3nNt7DNQ8TTHZ614/IFhzE9hLiVj16TuNTmZ7JMSseuydxqczPZDnErHr0ncanMz2DEpHrsncanMz2DEpHrsncanMz2DEpHrsncanMz2DEpHrsncanMz2DEpHr0ncanMz2DErHr0ncanMz2DErHr0ncanMz2HGJWPXZO41OZnsGJWPXpO41OZnsOcSsevSdxqczPYMSsevSdxqczPYMSkeuydxqczPYMSkeuydxqczPYMSkevSdxqczPYcYlY9dk7jU5mew5xKx69J3GpzM9hFLxMMH9a8/kCcx8DFVXFc1mTwl5/KFlGbf2GW4kqw00tZZkjssUnKsv5wchIHTkPate/cZy3pcKd3Rc34Bcd4nfj1Nvjo6TQ04cFfnqx60G22zgXD5j36XBvwF/wC66HwWn0Wv87fspfFL/VWvw8jsG1IZbTtGsqJo2YUzoo8MgExscWi6/wC61q6GkTMdFU9As7hHQNz1tOPzhTNLdhnIeGNnDPX03fCx8u/YTeWlna/Td8KPLv2Dy0s7X6XaNTy79g8tLO1+l2jU8u/YPLSztfpdo1PLv2Dy0s7X6XaNTy79g8tLO1+l2jU8u/YPLSztfpdo1PLv2Dy0s7X6XaNTy79g8tLO1+l2jU8u/YPLSztfpdo1PLv2Dy0s7X6baNTy79g8tLO1+m2gTy79g8tLO1+m2jU8u/YPLSztfpto1PLv2Dy0s7X6XaNTy79g8tLO1+l2jU8u/YPLSztfpdo1PLv2Dy0s7X6XaNTy79g8tLO1+l2jU8u/YdX8M7O1+m74Ty79hiq7hRZ7s1dTH84WUUt2Gg0lowx8IYJaeVj2VMXIvMZvAkDSBf3WpeJiOo2irfhPe7S4n5rgs9uLJa3zP8usxV4cdY+ES8mbcLIk5GhdJeLwyWX4A7l1fhNdtNX53/lzviNt88/Gz5bojeC4+s4u+JvXQYY2q0oWF6pEC5BzcpDBQMFAwUDBQMFAwUDBQMFAwUDBQMFAwUDBQMFAwUC5BxcoC5AQSWfUcjVU0w9SeJ3YJG3/ACvXhn9EPaSV83de4UDPWk7BsuU/5eT5tO9dj4dH+mp+HM63/ft+XmXAPgjSVFFFLMx5e7CvIe4DI4gZArWLzXpDWbpR8Wtmu9KGXayb1E5rjIN4rLLP8iXbSb1j59x3HFRZfuZdtJvTz7jnFTZfuZdtJvTmLhiosv3Mu2k3pzFwxUWX7mXbSb05i4YqLL9zLtpN6cxcMVFl+5l20m9OYuGKiy/cy7aTenMXDFRZfuZdtJvTmLhiosv3Mu2k3pzFwxUWX7mXbSb05i4YqLL9zLtpN6cxcMVNl+5l20m9OYuGKmy/cy7aTenMXDFTZfuZdtJvTmLhiosv3Mu2k3pzFwxUWX7mXbSb05i4YqLL9zLtpN6cxcMVNl+5l20m9OYuOp4qLL9zLtpN6efcRv4rLLH8iXbSb08+4o1fFpZzfRil2r96yjNcefcY3Byno4GSU7XNdygF7nOcLriedLXm0dRvrhcvnc9HXuFAz9oswrLlH+Xk+TXbl2Hh0/6an4c1rf8Aft+XlfAbhjTU1JFFKJcJt9+C28ZXX6VbxSbRvDVbjTcaNC3OKjZj6lE4LC7Hxt2eM4qdmPqWPL2Ew437O0VWzH1Jy9x3xuWdoqtmPqU8tcMblnaKrZj6lHLXDG5Z2iq2Y+pOWuGNyztFVsx9SctcMblnaKrZj6k5a4Y3LO0VWzH1Jy1wxuWdoqtmPqTlrhjcs7RVbMfUnLXDG5Z2iq2Y+pOWuGNyztFVsx9SctcMblnaKrZj6k5a4Y3LO0VWzH1Jy1wxuWdoqtmPqTlrhjcs7RVbMfUnLXDG5Z2iq2Y+pOWuGNyztFVsx9SctcMblnaKrZj6k5a46Hjfs7RVbMfUnL3EMvG1Z5zCp2Y+pPIsKFTxoULswqO4PqWUYbDReMHhNBWwsigEmFygPntuGa7T0pak1jqPRqxmDI8aHOHzK+fZ68OW1fmf5dXitxY6z8QhXk9G4WLGJqJ0dwytkj7wO9dX4TbfTR8TP8ue8Rrtnn9Hy3SDBBac7XFvaDcugwzvVownwhpC9kmGNIQMMaQgsAjSFmF40hNgvGkJsF40hNgvGkJsF40hNgvGkJsF40hNgvGkJsF40hNgvGkJsF40hNgvGkJsF40hNgvGkJsF40hNhw9wAzhRIgwxpCxDCGkIGENIQTWXT8tV0sIy4c8Y7OUBPyvWvnnoiXvFvxYMzvvXO+IXDeJ4+DU2+ero9BfiwR8dGOVe3G18C5vNkZoId8Rd+y6HwXJ9N6fO6m8Vp9Vbfo8v4N0kdNato0csbHDlTPHhtB8x7sIXX9D2roaz0VL0qz6WlOemg7jdyiZkZVllUp/pafZt3LHee4lFiUuqwbNu5RxT3HbxJS6rB3G7lPFPcc+JKbVoO43cnFbuHiSm1aDuN3JxW7h4kptWg7jdycVu4eJKbVoO43cnFbuOPElNq0HcbuTit3DxJTatB3G7k4rdw8SU2rQdxu5OK3cc+JKbVoO43cnFbuHiSm1aDuN3JxW7h4kptWg7jdycVu4eJKbVoO43cnFbuHiSm1aDuN3JxW7h4kptWg7jdycVu4eJKbVoO43cnFbuHiSm1aDuN3JxW7jg2JS6rB3G7k4p7jg2JS6rBs27lHFPcRuselH9LBs27lPFPcYm07NpGi/waAfkbuWUTI83s2mZUcIImxsa1lLEZHYIAGHgnPd+MfBTf0HpXDGkADJAPuH9R+653xrF0rk/Rb+F5OtqT+Wrrn1wynByp5OYZbg4YO5WXheXg1ERPv0aXiGPjwz8dWmcbGFQ2lT2kxt4kjMD+YOc3MCeo/6V19PXZzrHwcZT2ZqYd87lszh+RkYeN57f6Rp/Odyx5f5FpvHS8f0Ldodyjlvkd28dT7/8C3aHcpjTfImxxv1Ju0O5ZcpHcMcj9SbtDuTlPkMcj9SbtDuTlPkMcj9SbtDuTlPkMcb9SbtDuTlPkcY436k3aHcnKfIY436k3aHcnKfIY436k3aHcnKfIY436k3aHcnKfI5xxv1Ju0O5OU+QxyP1Ju0O5OU+QxyP1Ju0O5OU+QxyP1Ju0O5OU+QxyP1Ju0O5OU+QxyP1Ju0O5OU+RAeOt+ot2h3LDlvkcHjqfqLdodyct8iJ/HI8/wBE3aHcp5f5GOruNJ0g/wAK0fnO5T5O3uNg4jqEzGrtKRuWaTk29Tcpu6rwOxa959h6ba1Jy0T2c5F4/EMoWlrMHnYbU/b8vfTZfKyxZ54RdkP9lcZMbOo33GOIIIzg3jrCVtNZiY9YRMRMTErvGNZPjKy3mMXyMb4QwDPhsF7mjpIvHwXb6fNGXHW8e8OVzY5x3mk+z5/pJsNoPxVrjtxVYJlmCAgtwPvHSvWs7iS5ZBcgXIFyBcgXIFyBcgXIFyBcgXIFyCGofzLC0+wrLzBByghnDnYMcYLnvcGNaM5cTcB8V5ZbbQh9UcDbEFBRQUouvjYMIj1pXec93a4laUzuMh4QdAUDTuEdJgSYYHmvy5Mwdzhcr4pp/Ky8Uelv593QeH5/Mx8M+sMSqxvti4J1QJMLjn85v7hXvg+p2mcM/mP+1T4ng6Rkj8S8R4y+Dfiy0HBg+wqL5Y9DXE+czsJ+BXTYb8MqZr63UiAg7NddlCmJ2F2J4cF7RO473KQuQLkC5AuQLkC5AuQLkC5AuQRTSYPWsbTsKZK8RwgIBQbpxLWB4XWOrpG3xU2Rl+Z05GT4DL2haGW/FO6Hv/hB0BeYiQVbSoxNGWHPnB0O5lravTxnxTSf0/L302ecOSLfu0mRhaS1wuINxGgrjbVmtprPrDp62i0bw5hlLHB7TcQQQdBCUtNLRavrHUtWLRNZ92U4a2HHbVCWC4St8+N3PHM0ej1HN2rs9LqK58cXj9fy5fPhnFeay+d48NjnQytLZIyWOac4INytcN+KNpeKVeyRAQdmOIyhTE7C5DOHZ8hXtW0ShNcswuQLkC5AuQLkC5AuUBcp2FeaoAyDKfkvO19vRKoTfnXkOFAICDmkoZayeOjpxfJKbvwtzknoAvK18+TaOGEPpjgxYcdBTR0sIyMGU873n0nHpJWoMqgn8G6UDwbpQa/wls3C+0YPOaLnXesBz3aVS+KaLjjzaR1j1+Vp4fquGfLt6ezVlzi7X7HtDkX5fRdkdvW9oNXOnybz9s+v+Wrq9NGanzHowXG7wBNS3xnQgOlY2+RjP58Y9YfeA+IXX48nparm7VmJ2l45Tzh4vGfMRzgqwpeLRuJVmCAgIJ4qkjPlWcXmBZjqGnnu616xeJQmHQswuQLkC5BwSBnKgQvqWjNl6lhN4hKrLOXdA6F5zeZESwBAQcoIJ5SLmtBc9xDWtGUlxNwFy88mThj5Q964puA4s6IzVDb6qcXOJuPIsOXkx8r+paMzuPQfBulQHg3SgsICClLnPWg1i3LIwb5YxkzuaPVOkdC53xLw7hmcuKOnvHZd6HW8W2PJ6+zBKkWjOcHra5I8nIfMOY+wdytvDtf5M+Xf7f4V2t0fmxx1+7+WjcavFuQ42jZbQcK980DMzucyRgaecdoXU0vt9UKGYmHldPUB4yZ+cHOCt6mSLx0SlWYICAgIOQ4jMVO4kE7vaKnjnuOfCXaVPHYdTM4+sVHFPcdCViOEBAQEBBFLKbwxjS57jc1rReSTmyBeeTJFPyh7JxXcXPgt1dXgGocL2RnKKcEc/wB/9Fo2tMzvI9RizjrUC6gIIuXHSgcuOlBE6InKOfKg4MB0BBrlt2Dde+HPnLP3buVBr/C/XJh/b/C40mv/AOGT9/8ALXCFQzG07St92Wsi2XRXMfeWc2lnV0dCtND4jbB9F+tf4aGr0UZfqr0t/LAcO+K1ldfW2a5kc584tBuinP8AtcunxZYtEWpKhvS1J2npLxqpbJBIYKqN0Urcha8Xdo6FvY80T0li7L3SICAgICAgICAgICASg7WbST1sop6KIyPOcj0WD2ieYLXyZ/aqHuvF5xawWcOWlImqzlL3DzIvuxj/AHLVmdxvfIHoUDlsRGU82VBLy46UDlx0oKqAguRZh1IO6CpUekgxNpWQybzh5r9IzHrVfq/Dsef6o+m3f/Ld02tvh6T1hrFbQSRG57Td7Q9E9q5rPpcmCdrx+vsvMOox5Y3rP6JLNtOSA3sOTnafRO49Ky02ryae29Z6dvZGfTUzR9X7r9u2ZQWzGI6mJvKD0XZpmX+w/nHQul0viGLP0idp7SodRo8mHr6x3eR8J+LCuob30oNVCMtzRfOwdLB6XZ8FZ0y2r+Gq0xlW2/BdexwyFr8hB0ZVs1zVn4E69UiAgICAgICATdnQQtnL3COFj5XnIGxgucT0AZ142z1j06o3b/wZ4oqupwZbScaeM5eSblmcPvczf16lrWyWt6j2KwbBpqGPkqSFsbecgee86XuzuPWvMZenzoLaDpLmPUgpoCDtyZ0FA5M6CgsseAACQg7coNIQV5hebxl6kHTkzoKDu1gILXgXHmdmKxtWLRtPWExaazvDDWhwbiflieGHQcrP+FU6jwjHfrjnhn+yyw+JXr0vG/8ALX6qyZojlZeB6zPOHXkzKmy6HUYus1/WFnj1eHJ6T+6eitySPI/zx0+kO1bGn8UzYvpv9UfPq8c3h+PJ1r0l2tKyLMtPJVQMwj6x8yUdTxnV1g8SwZem+09pVWXQ5cfXbePhpVtcSJF77OrwOcR1OVvUJG5vgVY1yTHWJam2zTbS4B2tTHz6PlWj1qdzXj5G/wCS9o1FvcYGoZNFkmpahhGfCY4D9FnGor7wbq4tCPSR1hZefQ3c+Hx+18ip86ndLjxhHzEnqBUefRG63S09RMboKOpeTmuY6743LGdRHtBu2CzuLm2KjNSCEe1UODbuwXu+S851Fp9Bu1hcSEfpWlWOkPu4fMZ3jlPZcvKbTPqPTLB4O0VC3BpIIo9JABeetxylYjJT5brsvUgi5M6Cg7wi43nJ1oJ+UGkIOHvBBAIQVuTOgoHJnQUF1AQUpc560HVBap/RQSoK9VzIIEEtNn7EHFTZsUnpxtPTdl+IWvl0uHJ99Yl7U1GWn22Yqr4LwkEtL29RBHzWhk8GwW+2Zj/75bdPE8sesRKrHY0sf8KpI6CMn6qKeG58X+3l/t/6ytrsWT78a7A2paReYXfFpW3SNXX7prb94a1501vSJj+7LBhePtY2f/Q+YW1SbTH1Rs17RX/jO6tLYtM/0qaA9bG7lmxYx3BujvJ8Dp8/u27kE8Vk07PRp4R1MbuQZamYA0XADqF3OgmQVqnP2IIUE9LzoLCCKozIKqDtHnHWguoCAgIKUuc9aDqgtU+ZBKgr1PMggQS02fsQWkEc2Y/3zoKiDlucdaC8gIKLs560HCC3B6I/vnQSIK1Tn7N6CFBPS86CwgiqMyCqg7R5x1oLqAg//9k=;" vertex="1" parent="1">
                    <mxGeometry x="240" y="210.07" width="59.93" height="59.93" as="geometry"/>
                </mxCell>
            </root>
        </mxGraphModel>
    </diagram>
</mxfile>
